<svg xmlns="http://www.w3.org/2000/svg" viewBox="0 0 334.43 334.43"><title>logo</title><g id="Layer_3" data-name="Layer 3"><path d="M186.34,253.45A33.25,33.25,0,0,0,187.92,241a49.14,49.14,0,0,0-3.12-14,104.65,104.65,0,0,0-7.75-16.18L164,188.72a118.78,118.78,0,0,1-11.08-24.4l-37.09,49.62c-6.52,11.62-9.76,20.77-9.67,27.35q-.33,19.58,17.25,32.68,13.87,10.35,30,7.89t26.73-16.71A41.24,41.24,0,0,0,186.34,253.45Zm0,0A33.25,33.25,0,0,0,187.92,241a49.14,49.14,0,0,0-3.12-14,104.65,104.65,0,0,0-7.75-16.18L164,188.72a118.78,118.78,0,0,1-11.08-24.4l-37.09,49.62c-6.52,11.62-9.76,20.77-9.67,27.35q-.33,19.58,17.25,32.68,13.87,10.35,30,7.89t26.73-16.71A41.24,41.24,0,0,0,186.34,253.45Zm51.54-10.85c-.51-16.82-6.94-35.49-19.1-55.52l-13.61-22.62c-10.72-17.88-6.24-23.88-4.77-25.85,3.09-4.15,6.87-6.14,12.31-6.47a22.85,22.85,0,0,1,10.09,1.61,33.22,33.22,0,0,1,7.69,4.35,36.34,36.34,0,0,1,5.85,5.4c.08.1,8,9.82,3.07,16.5a12,12,0,0,0,2.44,16.68l27.51,20.49A12,12,0,0,0,286,194.77c12.33-16.44,17.49-34.53,14.93-52.33-2.48-17.29-12-32.55-27.48-44.14L151.86,7.38A12,12,0,0,0,135.15,9.8L114,38.08a11.94,11.94,0,0,0,2.42,16.7L152.7,81.9,72.51,189.19c-.11.15-.23.3-.29.4-.33.47-3.15,4.61-4.56,7.19-12.35,22.55-12.46,40.15-8.81,59.69A82.86,82.86,0,0,0,64,273.22c6.1,14.2,16.28,26.69,30.26,37.14l.1.08c20.49,15.29,43.11,21.39,67.22,18.14s44.07-15.36,59.48-36C232.78,276.89,238.41,260.09,237.88,242.6ZM160,316.75q-31.49,4.25-58.49-15.88Q82.89,286.95,75,268.51a70.83,70.83,0,0,1-4.45-14.32c-3.36-18-2.78-32.79,7.56-51.67,1.13-2.09,3.94-6.18,3.94-6.18L169.41,79.49,123.57,45.23l21.14-28.28,121.63,90.92c26.44,19.76,31.21,51.67,10.15,79.74L249,167.13c9.79-13.2-1.08-28.44-3.54-31.32a47.57,47.57,0,0,0-7.86-7.29,44.24,44.24,0,0,0-10.47-5.88,34.89,34.89,0,0,0-15.25-2.41,27.08,27.08,0,0,0-21.06,11.24q-10.74,14.39,4.1,39.12l13.62,22.64q16.72,27.54,17.4,49.73t-14.41,42.44Q191.3,312.53,160,316.75ZM187.92,241a49.14,49.14,0,0,0-3.12-14,104.65,104.65,0,0,0-7.75-16.18L164,188.72a118.78,118.78,0,0,1-11.08-24.4l-37.09,49.62c-6.52,11.62-9.76,20.77-9.67,27.35q-.33,19.58,17.25,32.68,13.87,10.35,30,7.89t26.73-16.71a41.24,41.24,0,0,0,6.25-11.68A33.25,33.25,0,0,0,187.92,241Z"/></g></svg>